<mxfile host="app.diagrams.net" modified="2022-10-17T09:15:37.304Z" agent="5.0 (Macintosh; Intel Mac OS X 10_15_7) AppleWebKit/537.36 (KHTML, like Gecko) Chrome/106.0.0.0 Safari/537.36" etag="YSZPB2wgYDde9lcbm07E" version="20.3.7" type="github">
  <diagram id="l9BVGx2wSwZs2T8OS8zE" name="第 1 页">
    <mxGraphModel dx="1261" dy="2030" grid="1" gridSize="10" guides="1" tooltips="1" connect="1" arrows="1" fold="1" page="1" pageScale="1" pageWidth="827" pageHeight="1169" math="0" shadow="0">
      <root>
        <mxCell id="0" />
        <mxCell id="1" parent="0" />
        <mxCell id="up5ozou8UAzMn38n5V-7-12" value="" style="rounded=0;whiteSpace=wrap;html=1;fontSize=16;fillColor=#d5e8d4;strokeColor=#82b366;dashed=1;strokeWidth=2;" vertex="1" parent="1">
          <mxGeometry x="170" y="160" width="150" height="120" as="geometry" />
        </mxCell>
        <mxCell id="up5ozou8UAzMn38n5V-7-1" value="&lt;font style=&quot;font-size: 16px;&quot;&gt;spark&lt;/font&gt;" style="rounded=0;whiteSpace=wrap;html=1;fillColor=#e1d5e7;strokeColor=#9673a6;strokeWidth=2;" vertex="1" parent="1">
          <mxGeometry x="480" y="606" width="300" height="40" as="geometry" />
        </mxCell>
        <mxCell id="up5ozou8UAzMn38n5V-7-2" value="&lt;font style=&quot;font-size: 16px;&quot;&gt;flink&lt;/font&gt;" style="rounded=0;whiteSpace=wrap;html=1;fillColor=#e1d5e7;strokeColor=#9673a6;strokeWidth=2;" vertex="1" parent="1">
          <mxGeometry x="170" y="606" width="290" height="40" as="geometry" />
        </mxCell>
        <mxCell id="up5ozou8UAzMn38n5V-7-3" value="&lt;span style=&quot;font-size: 16px;&quot;&gt;hive集群&lt;/span&gt;" style="rounded=0;whiteSpace=wrap;html=1;fillColor=#e1d5e7;strokeColor=#9673a6;strokeWidth=2;" vertex="1" parent="1">
          <mxGeometry x="170" y="541" width="610" height="40" as="geometry" />
        </mxCell>
        <mxCell id="up5ozou8UAzMn38n5V-7-7" value="&lt;span style=&quot;font-size: 16px;&quot;&gt;&lt;i&gt;python建库服务&lt;/i&gt;&lt;/span&gt;" style="rounded=0;whiteSpace=wrap;html=1;" vertex="1" parent="1">
          <mxGeometry x="412.75" y="380" width="124.5" height="40" as="geometry" />
        </mxCell>
        <mxCell id="up5ozou8UAzMn38n5V-7-8" value="&lt;span style=&quot;font-size: 16px;&quot;&gt;ceph集群&lt;/span&gt;" style="rounded=0;whiteSpace=wrap;html=1;fillColor=#e1d5e7;strokeColor=#9673a6;strokeWidth=2;" vertex="1" parent="1">
          <mxGeometry x="170" y="304" width="610" height="40" as="geometry" />
        </mxCell>
        <mxCell id="up5ozou8UAzMn38n5V-7-9" value="&lt;span style=&quot;font-size: 16px;&quot;&gt;version_1&lt;/span&gt;" style="rounded=0;whiteSpace=wrap;html=1;fillColor=#fff2cc;strokeColor=#d6b656;strokeWidth=2;" vertex="1" parent="1">
          <mxGeometry x="180" y="170" width="130" height="40" as="geometry" />
        </mxCell>
        <mxCell id="up5ozou8UAzMn38n5V-7-10" value="&lt;span style=&quot;font-size: 16px;&quot;&gt;Base&lt;br&gt;Index&lt;br&gt;&lt;/span&gt;" style="rounded=0;whiteSpace=wrap;html=1;fillColor=#ffe6cc;strokeColor=#d79b00;strokeWidth=2;" vertex="1" parent="1">
          <mxGeometry x="180" y="220" width="60" height="50" as="geometry" />
        </mxCell>
        <mxCell id="up5ozou8UAzMn38n5V-7-11" value="&lt;span style=&quot;font-size: 16px;&quot;&gt;Incre&lt;br&gt;Index&lt;br&gt;&lt;/span&gt;" style="rounded=0;whiteSpace=wrap;html=1;fillColor=#ffe6cc;strokeColor=#d79b00;strokeWidth=2;" vertex="1" parent="1">
          <mxGeometry x="250" y="220" width="60" height="50" as="geometry" />
        </mxCell>
        <mxCell id="up5ozou8UAzMn38n5V-7-13" value="" style="rounded=0;whiteSpace=wrap;html=1;fontSize=16;fillColor=#d5e8d4;strokeColor=#82b366;dashed=1;strokeWidth=2;" vertex="1" parent="1">
          <mxGeometry x="330" y="160" width="150" height="120" as="geometry" />
        </mxCell>
        <mxCell id="up5ozou8UAzMn38n5V-7-14" value="&lt;span style=&quot;font-size: 16px;&quot;&gt;version_2&lt;/span&gt;" style="rounded=0;whiteSpace=wrap;html=1;fillColor=#fff2cc;strokeColor=#d6b656;strokeWidth=2;" vertex="1" parent="1">
          <mxGeometry x="340" y="170" width="130" height="40" as="geometry" />
        </mxCell>
        <mxCell id="up5ozou8UAzMn38n5V-7-15" value="&lt;span style=&quot;font-size: 16px;&quot;&gt;Base&lt;br&gt;Index&lt;br&gt;&lt;/span&gt;" style="rounded=0;whiteSpace=wrap;html=1;fillColor=#ffe6cc;strokeColor=#d79b00;strokeWidth=2;" vertex="1" parent="1">
          <mxGeometry x="340" y="220" width="60" height="50" as="geometry" />
        </mxCell>
        <mxCell id="up5ozou8UAzMn38n5V-7-16" value="&lt;span style=&quot;font-size: 16px;&quot;&gt;Incre&lt;br&gt;Index&lt;br&gt;&lt;/span&gt;" style="rounded=0;whiteSpace=wrap;html=1;fillColor=#ffe6cc;strokeColor=#d79b00;strokeWidth=2;" vertex="1" parent="1">
          <mxGeometry x="410" y="220" width="60" height="50" as="geometry" />
        </mxCell>
        <mxCell id="up5ozou8UAzMn38n5V-7-17" value="" style="rounded=0;whiteSpace=wrap;html=1;fontSize=16;fillColor=#d5e8d4;strokeColor=#82b366;dashed=1;strokeWidth=2;" vertex="1" parent="1">
          <mxGeometry x="500" y="160" width="130" height="120" as="geometry" />
        </mxCell>
        <mxCell id="up5ozou8UAzMn38n5V-7-18" value="" style="rounded=0;whiteSpace=wrap;html=1;fillColor=#fff2cc;strokeColor=#d6b656;strokeWidth=2;" vertex="1" parent="1">
          <mxGeometry x="510" y="170" width="110" height="40" as="geometry" />
        </mxCell>
        <mxCell id="up5ozou8UAzMn38n5V-7-19" value="&lt;span style=&quot;font-size: 16px;&quot;&gt;&lt;br&gt;&lt;/span&gt;" style="rounded=0;whiteSpace=wrap;html=1;fillColor=#ffe6cc;strokeColor=#d79b00;strokeWidth=2;" vertex="1" parent="1">
          <mxGeometry x="510" y="220" width="50" height="50" as="geometry" />
        </mxCell>
        <mxCell id="up5ozou8UAzMn38n5V-7-20" value="&lt;span style=&quot;font-size: 16px;&quot;&gt;&lt;br&gt;&lt;/span&gt;" style="rounded=0;whiteSpace=wrap;html=1;fillColor=#ffe6cc;strokeColor=#d79b00;strokeWidth=2;" vertex="1" parent="1">
          <mxGeometry x="570" y="220" width="50" height="50" as="geometry" />
        </mxCell>
        <mxCell id="up5ozou8UAzMn38n5V-7-21" value="" style="rounded=0;whiteSpace=wrap;html=1;fontSize=16;fillColor=#d5e8d4;strokeColor=#82b366;dashed=1;strokeWidth=2;" vertex="1" parent="1">
          <mxGeometry x="650" y="160" width="130" height="120" as="geometry" />
        </mxCell>
        <mxCell id="up5ozou8UAzMn38n5V-7-22" value="" style="rounded=0;whiteSpace=wrap;html=1;fillColor=#fff2cc;strokeColor=#d6b656;strokeWidth=2;" vertex="1" parent="1">
          <mxGeometry x="660" y="170" width="110" height="40" as="geometry" />
        </mxCell>
        <mxCell id="up5ozou8UAzMn38n5V-7-23" value="&lt;span style=&quot;font-size: 16px;&quot;&gt;&lt;br&gt;&lt;/span&gt;" style="rounded=0;whiteSpace=wrap;html=1;fillColor=#ffe6cc;strokeColor=#d79b00;strokeWidth=2;" vertex="1" parent="1">
          <mxGeometry x="660" y="220" width="50" height="50" as="geometry" />
        </mxCell>
        <mxCell id="up5ozou8UAzMn38n5V-7-24" value="&lt;span style=&quot;font-size: 16px;&quot;&gt;&lt;br&gt;&lt;/span&gt;" style="rounded=0;whiteSpace=wrap;html=1;fillColor=#ffe6cc;strokeColor=#d79b00;strokeWidth=2;" vertex="1" parent="1">
          <mxGeometry x="720" y="220" width="50" height="50" as="geometry" />
        </mxCell>
        <mxCell id="up5ozou8UAzMn38n5V-7-53" style="edgeStyle=orthogonalEdgeStyle;rounded=0;orthogonalLoop=1;jettySize=auto;html=1;exitX=0.5;exitY=1;exitDx=0;exitDy=0;entryX=0.5;entryY=0;entryDx=0;entryDy=0;strokeWidth=2;fontSize=16;" edge="1" parent="1" source="up5ozou8UAzMn38n5V-7-25" target="up5ozou8UAzMn38n5V-7-13">
          <mxGeometry relative="1" as="geometry">
            <Array as="points">
              <mxPoint x="320" y="140" />
              <mxPoint x="405" y="140" />
            </Array>
          </mxGeometry>
        </mxCell>
        <mxCell id="up5ozou8UAzMn38n5V-7-54" style="edgeStyle=orthogonalEdgeStyle;rounded=0;orthogonalLoop=1;jettySize=auto;html=1;exitX=0.5;exitY=1;exitDx=0;exitDy=0;strokeWidth=2;fontSize=16;dashed=1;" edge="1" parent="1" source="up5ozou8UAzMn38n5V-7-25" target="up5ozou8UAzMn38n5V-7-12">
          <mxGeometry relative="1" as="geometry">
            <Array as="points">
              <mxPoint x="320" y="140" />
              <mxPoint x="245" y="140" />
            </Array>
          </mxGeometry>
        </mxCell>
        <mxCell id="up5ozou8UAzMn38n5V-7-25" value="&lt;span style=&quot;font-size: 16px;&quot;&gt;ModelA&lt;/span&gt;" style="rounded=0;whiteSpace=wrap;html=1;fillColor=#b0e3e6;strokeColor=#0e8088;strokeWidth=2;" vertex="1" parent="1">
          <mxGeometry x="270" y="75" width="100" height="50" as="geometry" />
        </mxCell>
        <mxCell id="up5ozou8UAzMn38n5V-7-55" style="edgeStyle=orthogonalEdgeStyle;rounded=0;orthogonalLoop=1;jettySize=auto;html=1;exitX=0.5;exitY=1;exitDx=0;exitDy=0;entryX=0.5;entryY=0;entryDx=0;entryDy=0;strokeWidth=2;fontSize=16;" edge="1" parent="1" source="up5ozou8UAzMn38n5V-7-26" target="up5ozou8UAzMn38n5V-7-17">
          <mxGeometry relative="1" as="geometry" />
        </mxCell>
        <mxCell id="up5ozou8UAzMn38n5V-7-26" value="&lt;span style=&quot;font-size: 16px;&quot;&gt;ModelB&lt;/span&gt;" style="rounded=0;whiteSpace=wrap;html=1;fillColor=#b0e3e6;strokeColor=#0e8088;strokeWidth=2;" vertex="1" parent="1">
          <mxGeometry x="515" y="75" width="100" height="50" as="geometry" />
        </mxCell>
        <mxCell id="up5ozou8UAzMn38n5V-7-57" style="edgeStyle=orthogonalEdgeStyle;rounded=0;orthogonalLoop=1;jettySize=auto;html=1;exitX=0.5;exitY=1;exitDx=0;exitDy=0;entryX=0.5;entryY=0;entryDx=0;entryDy=0;strokeWidth=2;fontSize=16;" edge="1" parent="1" source="up5ozou8UAzMn38n5V-7-27" target="up5ozou8UAzMn38n5V-7-21">
          <mxGeometry relative="1" as="geometry" />
        </mxCell>
        <mxCell id="up5ozou8UAzMn38n5V-7-27" value="&lt;span style=&quot;font-size: 16px;&quot;&gt;ModelC&lt;/span&gt;" style="rounded=0;whiteSpace=wrap;html=1;fillColor=#b0e3e6;strokeColor=#0e8088;strokeWidth=2;" vertex="1" parent="1">
          <mxGeometry x="665" y="75" width="100" height="50" as="geometry" />
        </mxCell>
        <mxCell id="up5ozou8UAzMn38n5V-7-59" style="edgeStyle=orthogonalEdgeStyle;curved=1;rounded=0;orthogonalLoop=1;jettySize=auto;html=1;exitX=0.5;exitY=1;exitDx=0;exitDy=0;strokeWidth=2;fontSize=16;" edge="1" parent="1" source="up5ozou8UAzMn38n5V-7-28" target="up5ozou8UAzMn38n5V-7-25">
          <mxGeometry relative="1" as="geometry" />
        </mxCell>
        <mxCell id="up5ozou8UAzMn38n5V-7-60" style="edgeStyle=orthogonalEdgeStyle;curved=1;rounded=0;orthogonalLoop=1;jettySize=auto;html=1;exitX=0.5;exitY=1;exitDx=0;exitDy=0;strokeWidth=2;fontSize=16;" edge="1" parent="1" source="up5ozou8UAzMn38n5V-7-28" target="up5ozou8UAzMn38n5V-7-26">
          <mxGeometry relative="1" as="geometry" />
        </mxCell>
        <mxCell id="up5ozou8UAzMn38n5V-7-61" style="edgeStyle=orthogonalEdgeStyle;curved=1;rounded=0;orthogonalLoop=1;jettySize=auto;html=1;exitX=0.5;exitY=1;exitDx=0;exitDy=0;entryX=0.5;entryY=0;entryDx=0;entryDy=0;strokeWidth=2;fontSize=16;" edge="1" parent="1" source="up5ozou8UAzMn38n5V-7-28" target="up5ozou8UAzMn38n5V-7-27">
          <mxGeometry relative="1" as="geometry" />
        </mxCell>
        <mxCell id="up5ozou8UAzMn38n5V-7-28" value="&lt;span style=&quot;font-size: 16px;&quot;&gt;ModelManager&lt;/span&gt;" style="rounded=0;whiteSpace=wrap;html=1;fillColor=#b0e3e6;strokeColor=#0e8088;strokeWidth=2;" vertex="1" parent="1">
          <mxGeometry x="414" y="-30" width="130" height="50" as="geometry" />
        </mxCell>
        <mxCell id="up5ozou8UAzMn38n5V-7-38" value="" style="endArrow=classic;html=1;rounded=0;fontSize=17;strokeWidth=2;" edge="1" parent="1">
          <mxGeometry width="50" height="50" relative="1" as="geometry">
            <mxPoint x="314.47" y="606" as="sourcePoint" />
            <mxPoint x="314" y="581" as="targetPoint" />
          </mxGeometry>
        </mxCell>
        <mxCell id="up5ozou8UAzMn38n5V-7-40" value="" style="endArrow=classic;html=1;rounded=0;fontSize=17;strokeWidth=2;" edge="1" parent="1">
          <mxGeometry width="50" height="50" relative="1" as="geometry">
            <mxPoint x="640.47" y="606" as="sourcePoint" />
            <mxPoint x="640" y="581" as="targetPoint" />
          </mxGeometry>
        </mxCell>
        <mxCell id="up5ozou8UAzMn38n5V-7-41" value="" style="endArrow=classic;html=1;rounded=0;fontSize=17;strokeWidth=2;" edge="1" parent="1">
          <mxGeometry width="50" height="50" relative="1" as="geometry">
            <mxPoint x="469.42" y="541" as="sourcePoint" />
            <mxPoint x="468.94999999999976" y="516" as="targetPoint" />
          </mxGeometry>
        </mxCell>
        <mxCell id="up5ozou8UAzMn38n5V-7-42" value="" style="group" vertex="1" connectable="0" parent="1">
          <mxGeometry x="170" y="446" width="610" height="70" as="geometry" />
        </mxCell>
        <mxCell id="up5ozou8UAzMn38n5V-7-29" value="" style="rounded=0;whiteSpace=wrap;html=1;strokeWidth=2;fontSize=16;fillColor=#e1d5e7;strokeColor=#9673a6;" vertex="1" parent="up5ozou8UAzMn38n5V-7-42">
          <mxGeometry width="610" height="70" as="geometry" />
        </mxCell>
        <mxCell id="up5ozou8UAzMn38n5V-7-4" value="&lt;span style=&quot;font-size: 16px;&quot;&gt;bdsp任务&lt;/span&gt;" style="rounded=0;whiteSpace=wrap;html=1;fillColor=#f8cecc;strokeColor=#b85450;strokeWidth=2;" vertex="1" parent="up5ozou8UAzMn38n5V-7-42">
          <mxGeometry x="490" y="30" width="100" height="30" as="geometry" />
        </mxCell>
        <mxCell id="up5ozou8UAzMn38n5V-7-5" value="&lt;span style=&quot;font-size: 16px;&quot;&gt;bdsp任务&lt;/span&gt;" style="rounded=0;whiteSpace=wrap;html=1;fillColor=#f8cecc;strokeColor=#b85450;strokeWidth=2;" vertex="1" parent="up5ozou8UAzMn38n5V-7-42">
          <mxGeometry x="20" y="30" width="100" height="30" as="geometry" />
        </mxCell>
        <mxCell id="up5ozou8UAzMn38n5V-7-6" value="&lt;span style=&quot;font-size: 16px;&quot;&gt;bdsp任务&lt;/span&gt;" style="rounded=0;whiteSpace=wrap;html=1;fillColor=#f8cecc;strokeColor=#b85450;strokeWidth=2;" vertex="1" parent="up5ozou8UAzMn38n5V-7-42">
          <mxGeometry x="170" y="30" width="100" height="30" as="geometry" />
        </mxCell>
        <mxCell id="up5ozou8UAzMn38n5V-7-30" value="&lt;span style=&quot;font-size: 16px;&quot;&gt;bdsp任务&lt;/span&gt;" style="rounded=0;whiteSpace=wrap;html=1;fillColor=#f8cecc;strokeColor=#b85450;strokeWidth=2;" vertex="1" parent="up5ozou8UAzMn38n5V-7-42">
          <mxGeometry x="315" y="30" width="100" height="30" as="geometry" />
        </mxCell>
        <mxCell id="up5ozou8UAzMn38n5V-7-31" value="&lt;font style=&quot;font-size: 20px;&quot;&gt;...&lt;/font&gt;" style="text;html=1;strokeColor=none;fillColor=none;align=center;verticalAlign=middle;whiteSpace=wrap;rounded=0;dashed=1;strokeWidth=2;fontSize=16;" vertex="1" parent="up5ozou8UAzMn38n5V-7-42">
          <mxGeometry x="430" y="20" width="40" height="30" as="geometry" />
        </mxCell>
        <mxCell id="up5ozou8UAzMn38n5V-7-32" value="&lt;font style=&quot;font-size: 17px;&quot;&gt;bdsp平台&lt;/font&gt;" style="text;html=1;strokeColor=none;fillColor=none;align=center;verticalAlign=middle;whiteSpace=wrap;rounded=0;dashed=1;strokeWidth=2;fontSize=20;" vertex="1" parent="up5ozou8UAzMn38n5V-7-42">
          <mxGeometry x="1" width="80" height="30" as="geometry" />
        </mxCell>
        <mxCell id="up5ozou8UAzMn38n5V-7-43" value="" style="endArrow=classic;html=1;rounded=0;fontSize=17;strokeWidth=2;entryX=0.5;entryY=1;entryDx=0;entryDy=0;exitX=0.5;exitY=0;exitDx=0;exitDy=0;" edge="1" parent="1" source="up5ozou8UAzMn38n5V-7-29" target="up5ozou8UAzMn38n5V-7-7">
          <mxGeometry width="50" height="50" relative="1" as="geometry">
            <mxPoint x="469.4200000000003" y="446" as="sourcePoint" />
            <mxPoint x="468.95000000000005" y="421" as="targetPoint" />
          </mxGeometry>
        </mxCell>
        <mxCell id="up5ozou8UAzMn38n5V-7-45" value="" style="endArrow=classic;html=1;rounded=0;fontSize=17;strokeWidth=2;exitX=0.5;exitY=0;exitDx=0;exitDy=0;entryX=0.5;entryY=1;entryDx=0;entryDy=0;" edge="1" parent="1" source="up5ozou8UAzMn38n5V-7-7" target="up5ozou8UAzMn38n5V-7-8">
          <mxGeometry width="50" height="50" relative="1" as="geometry">
            <mxPoint x="470.4700000000003" y="370" as="sourcePoint" />
            <mxPoint x="470" y="340" as="targetPoint" />
          </mxGeometry>
        </mxCell>
        <mxCell id="up5ozou8UAzMn38n5V-7-46" value="" style="endArrow=classic;html=1;rounded=0;fontSize=17;strokeWidth=2;" edge="1" parent="1">
          <mxGeometry width="50" height="50" relative="1" as="geometry">
            <mxPoint x="244.94000000000048" y="305" as="sourcePoint" />
            <mxPoint x="244.47000000000023" y="280" as="targetPoint" />
          </mxGeometry>
        </mxCell>
        <mxCell id="up5ozou8UAzMn38n5V-7-47" value="" style="endArrow=classic;html=1;rounded=0;fontSize=17;strokeWidth=2;" edge="1" parent="1">
          <mxGeometry width="50" height="50" relative="1" as="geometry">
            <mxPoint x="405.9400000000005" y="304" as="sourcePoint" />
            <mxPoint x="405.47000000000025" y="279" as="targetPoint" />
          </mxGeometry>
        </mxCell>
        <mxCell id="up5ozou8UAzMn38n5V-7-48" value="" style="endArrow=classic;html=1;rounded=0;fontSize=17;strokeWidth=2;" edge="1" parent="1">
          <mxGeometry width="50" height="50" relative="1" as="geometry">
            <mxPoint x="566.9400000000005" y="304" as="sourcePoint" />
            <mxPoint x="566.4700000000003" y="279" as="targetPoint" />
          </mxGeometry>
        </mxCell>
        <mxCell id="up5ozou8UAzMn38n5V-7-49" value="" style="endArrow=classic;html=1;rounded=0;fontSize=17;strokeWidth=2;" edge="1" parent="1">
          <mxGeometry width="50" height="50" relative="1" as="geometry">
            <mxPoint x="715.9400000000005" y="304" as="sourcePoint" />
            <mxPoint x="715.4700000000003" y="279" as="targetPoint" />
          </mxGeometry>
        </mxCell>
        <mxCell id="up5ozou8UAzMn38n5V-7-50" value="&lt;font style=&quot;font-size: 16px;&quot;&gt;load&lt;/font&gt;" style="text;html=1;strokeColor=none;fillColor=none;align=center;verticalAlign=middle;whiteSpace=wrap;rounded=0;strokeWidth=2;fontSize=17;" vertex="1" parent="1">
          <mxGeometry x="240" y="277" width="60" height="30" as="geometry" />
        </mxCell>
        <mxCell id="up5ozou8UAzMn38n5V-7-51" value="&lt;font style=&quot;font-size: 16px;&quot;&gt;load&lt;/font&gt;" style="text;html=1;strokeColor=none;fillColor=none;align=center;verticalAlign=middle;whiteSpace=wrap;rounded=0;strokeWidth=2;fontSize=17;" vertex="1" parent="1">
          <mxGeometry x="400" y="277" width="60" height="30" as="geometry" />
        </mxCell>
        <mxCell id="up5ozou8UAzMn38n5V-7-62" value="" style="endArrow=none;dashed=1;html=1;rounded=0;strokeWidth=2;fontSize=16;curved=1;" edge="1" parent="1">
          <mxGeometry width="50" height="50" relative="1" as="geometry">
            <mxPoint x="70" y="360" as="sourcePoint" />
            <mxPoint x="790" y="360" as="targetPoint" />
          </mxGeometry>
        </mxCell>
        <mxCell id="up5ozou8UAzMn38n5V-7-63" value="&lt;font style=&quot;font-size: 16px;&quot;&gt;write&lt;/font&gt;" style="text;html=1;strokeColor=none;fillColor=none;align=center;verticalAlign=middle;whiteSpace=wrap;rounded=0;strokeWidth=2;fontSize=17;" vertex="1" parent="1">
          <mxGeometry x="468" y="354" width="60" height="30" as="geometry" />
        </mxCell>
        <mxCell id="up5ozou8UAzMn38n5V-7-66" value="&lt;font style=&quot;font-size: 17px;&quot;&gt;&lt;i&gt;离线服务&lt;/i&gt;&lt;/font&gt;" style="text;html=1;strokeColor=none;fillColor=none;align=center;verticalAlign=middle;whiteSpace=wrap;rounded=0;strokeWidth=2;fontSize=16;" vertex="1" parent="1">
          <mxGeometry x="80" y="370" width="80" height="30" as="geometry" />
        </mxCell>
        <mxCell id="up5ozou8UAzMn38n5V-7-67" value="&lt;font style=&quot;font-size: 17px;&quot;&gt;&lt;i&gt;在线服务&lt;/i&gt;&lt;/font&gt;" style="text;html=1;strokeColor=none;fillColor=none;align=center;verticalAlign=middle;whiteSpace=wrap;rounded=0;strokeWidth=2;fontSize=16;" vertex="1" parent="1">
          <mxGeometry x="80" y="324" width="80" height="30" as="geometry" />
        </mxCell>
      </root>
    </mxGraphModel>
  </diagram>
</mxfile>
